<svg version="1.1" id="Layer_1" xmlns="http://www.w3.org/2000/svg" xmlns:xlink="http://www.w3.org/1999/xlink" x="0px" y="0px"
	 width="100%" viewBox="0 0 1152 720" enable-background="new 0 0 1152 720" xml:space="preserve">
<path fill="#FFFFFF" opacity="1.000000" stroke="none" 
	d="
M766.000000,721.000000 
	C510.666687,721.000000 255.833359,721.000000 1.000034,721.000000 
	C1.000023,481.000031 1.000023,241.000061 1.000011,1.000067 
	C384.999969,1.000044 768.999939,1.000044 1153.000000,1.000022 
	C1153.000000,240.999939 1153.000000,480.999878 1153.000000,720.999878 
	C1024.166626,721.000000 895.333313,721.000000 766.000000,721.000000 
M155.670471,175.499527 
	C160.078964,170.606720 163.780121,164.708328 169.031815,161.014236 
	C183.384216,150.918671 201.826767,153.354996 214.603699,166.020309 
	C220.363602,171.729935 228.581985,170.602127 230.643845,163.760422 
	C243.085739,122.475601 234.569855,85.668114 204.879929,54.804913 
	C175.292160,24.047913 138.663574,14.927430 97.663811,26.094843 
	C38.912418,42.097397 5.496758,103.767921 23.225107,162.120911 
	C40.716743,219.694733 103.434753,252.463425 160.607330,234.079773 
	C163.081528,233.284195 166.476929,233.704315 168.928467,234.756958 
	C184.104660,241.273270 198.730469,240.570877 212.970703,232.232147 
	C216.181259,230.352127 218.883240,227.980438 216.880234,223.788254 
	C215.272430,220.423233 211.886383,220.323120 207.377930,222.842911 
	C204.493134,224.455276 201.508087,226.163849 198.348877,226.962296 
	C184.052917,230.575394 171.425659,227.231400 161.589584,216.165588 
	C151.098648,204.363022 149.124756,190.803635 155.670471,175.499527 
M615.406555,94.737076 
	C615.555664,93.581024 615.662659,92.417686 615.860779,91.270088 
	C617.121521,83.965240 620.698120,80.723198 627.463867,80.721771 
	C634.030457,80.720390 637.252563,83.654259 638.504639,91.109421 
	C638.942810,93.718330 639.024475,96.405838 639.058716,99.060165 
	C639.144775,105.720520 639.060425,112.383102 639.147705,119.043427 
	C639.187073,122.045334 641.016968,124.095055 643.854309,123.517105 
	C645.820557,123.116592 648.977661,121.025276 648.977600,119.689575 
	C648.977051,108.065681 649.069336,96.362610 647.740417,84.843872 
	C646.739563,76.168846 640.695740,72.208824 631.950745,71.886093 
	C623.441772,71.572075 617.124207,75.339180 612.478333,82.575737 
	C607.795044,70.199066 593.205566,67.896881 582.184265,79.285042 
	C582.001709,78.160866 582.178223,76.832253 581.648315,76.426735 
	C579.882690,75.075485 577.839294,73.150459 575.949463,73.201088 
	C574.496216,73.240028 571.921936,75.898102 571.886597,77.438255 
	C571.569824,91.253654 571.714233,105.079430 571.701477,118.902130 
	C571.698364,122.326874 573.664490,123.694557 576.766663,123.687904 
	C579.891663,123.681198 581.803040,122.217247 581.800598,118.843857 
	C581.796509,113.014984 581.613525,107.177254 581.877197,101.360085 
	C582.079102,96.906166 582.475159,92.390137 583.481262,88.063698 
	C584.471130,83.807121 587.714355,81.430588 592.129700,80.890945 
	C598.998779,80.051407 603.519714,82.774841 604.182312,89.646103 
	C605.074097,98.893265 604.959473,108.246056 605.068420,117.555954 
	C605.112610,121.326195 606.218811,123.791695 610.386230,123.695564 
	C614.298401,123.605316 615.316101,121.195198 615.272278,117.662666 
	C615.181335,110.337456 615.313232,103.009483 615.406555,94.737076 
M331.304321,60.134518 
	C330.010132,59.826164 328.727753,59.451324 327.419983,59.219639 
	C312.737823,56.618538 299.488953,62.967697 294.062653,75.182259 
	C287.477905,90.004402 290.922577,110.312584 301.937622,118.366547 
	C305.570892,121.023094 310.142303,122.935715 314.558868,123.821175 
	C318.510864,124.613487 320.579498,126.165955 322.100464,129.747772 
	C324.815613,136.141891 329.202667,137.421448 336.126648,133.984802 
	C334.205505,130.613510 332.289429,127.251175 330.250977,123.674026 
	C346.383179,118.309731 351.749237,106.290962 351.544739,90.972557 
	C351.356567,76.877281 346.241608,65.669487 331.304321,60.134518 
M472.076263,172.994614 
	C471.402679,172.653351 470.150421,172.325562 470.142120,171.968811 
	C470.014130,166.472549 470.022308,160.972366 470.053680,155.473434 
	C470.072540,152.168564 468.446808,150.528488 465.192535,150.492889 
	C462.075806,150.458786 460.023743,151.698807 460.022736,155.137848 
	C460.017151,174.468277 460.008209,193.798721 460.038483,213.129105 
	C460.043884,216.576385 462.225342,217.719238 465.313263,217.679199 
	C470.165527,217.616287 470.162598,213.854172 470.092834,209.758606 
	C482.793182,225.222260 504.363800,219.248978 509.418152,203.816498 
	C511.880371,196.298645 512.080872,188.726395 509.486664,181.239700 
	C503.976410,165.337280 484.823517,160.794083 472.076263,172.994614 
M375.691284,153.810547 
	C354.480255,148.964630 337.960327,161.333542 336.976166,183.049072 
	C336.774933,187.489075 337.107513,192.093521 338.080841,196.422791 
	C342.906311,217.886124 370.688049,226.591965 386.901489,211.663437 
	C389.855011,208.943985 392.044647,205.136826 393.740906,201.443268 
	C394.376190,200.059952 392.970978,196.184265 391.843109,195.882065 
	C389.732391,195.316544 387.092438,196.365265 384.787689,197.102188 
	C384.085083,197.326859 383.759735,198.730545 383.261017,199.593918 
	C379.145966,206.717865 372.860443,209.720688 364.825562,208.893997 
	C356.658356,208.053680 351.439392,203.332886 349.039795,195.619003 
	C346.905151,188.756912 346.929993,181.795517 349.388275,175.003021 
	C352.926941,165.225357 362.197327,160.413513 372.231964,163.037811 
	C377.554810,164.429855 381.321960,167.843658 383.747559,172.668396 
	C385.719879,176.591583 388.813354,176.793427 392.136597,175.204681 
	C396.177826,173.272720 394.290863,170.155243 392.961670,167.536804 
	C389.463684,160.645996 383.882446,156.177490 375.691284,153.810547 
M567.790894,180.762772 
	C564.026550,171.746262 557.201782,166.845642 547.531616,166.112701 
	C536.885498,165.305771 527.868896,168.665039 522.686279,178.407242 
	C517.183044,188.752121 517.519897,199.472519 524.383911,209.120407 
	C533.271301,221.612366 556.326599,222.157837 565.276001,210.339233 
	C566.316345,208.965378 566.083984,206.627884 566.441650,204.737152 
	C564.129272,204.616501 561.812683,204.373398 559.507202,204.452530 
	C558.846985,204.475220 558.215088,205.426025 557.576660,205.958984 
	C551.738342,210.832809 545.139526,211.225906 538.299744,208.851334 
	C532.474670,206.829025 529.362854,201.306183 530.231750,194.983047 
	C539.494629,194.983047 548.803589,194.981155 558.112488,194.983505 
	C570.729065,194.986694 571.629639,193.764557 567.790894,180.762772 
M461.265167,118.782425 
	C470.229919,109.700119 472.428589,95.303970 466.298248,84.261284 
	C461.228760,75.129433 452.910461,71.650116 442.884735,71.934822 
	C433.212738,72.209473 425.459442,76.144615 420.946716,85.070480 
	C415.377441,96.086151 417.960175,111.343735 426.455170,118.727028 
	C435.564667,126.644424 449.905396,126.851509 461.265167,118.782425 
M558.045654,73.732132 
	C551.535583,71.839310 549.727905,73.103416 549.610352,79.558510 
	C549.458923,87.868645 549.752441,96.224663 548.956177,104.474236 
	C548.220764,112.093201 543.414185,115.777283 536.172668,115.753563 
	C528.486206,115.728386 524.209961,112.006973 523.094971,104.192192 
	C522.791199,102.063011 522.795166,99.880157 522.781494,97.721153 
	C522.739380,91.065361 522.777161,84.409088 522.742004,77.753220 
	C522.726624,74.836121 521.334900,72.539146 518.325256,73.038925 
	C516.312195,73.373199 512.943481,75.285271 512.943726,76.490715 
	C512.946167,88.096375 512.854919,99.781387 514.197144,111.279472 
	C515.089172,118.921043 521.022156,123.095016 528.768188,124.223656 
	C536.744995,125.385925 543.598328,123.504936 549.135620,116.384804 
	C549.586670,120.950348 550.699280,124.403557 555.687317,123.634781 
	C560.850220,122.839035 559.715881,118.732376 559.733521,115.399239 
	C559.796143,103.585007 559.807495,91.769829 559.708374,79.956085 
	C559.692322,78.042511 559.016418,76.134460 558.045654,73.732132 
M361.787750,109.593071 
	C363.317352,123.903313 384.357758,131.141220 397.684875,116.756172 
	C397.793365,117.821960 397.900665,118.560516 397.938568,119.302612 
	C398.117676,122.808899 400.393860,123.786629 403.387390,123.667717 
	C406.354126,123.549858 407.956421,121.933075 407.956055,118.887009 
	C407.954346,105.070122 407.957123,91.253235 407.942627,77.436363 
	C407.939331,74.315842 406.210388,73.013184 403.214569,72.906860 
	C399.348969,72.769653 397.910065,74.651802 397.885284,78.384750 
	C397.827820,87.031013 397.990967,95.713562 397.240997,104.309525 
	C396.626923,111.347946 392.767212,114.788177 386.585968,115.610115 
	C377.096527,116.871941 371.370209,111.779579 371.056702,101.405869 
	C370.820435,93.588776 370.998322,85.759270 370.984497,77.935295 
	C370.978851,74.751114 369.578247,72.969185 366.191864,72.898529 
	C363.019958,72.832329 360.848206,73.992996 360.895752,77.372200 
	C361.043152,87.842445 361.359283,98.310310 361.787750,109.593071 
M430.605621,221.268158 
	C437.473755,205.391418 444.395172,189.537170 451.127502,173.603058 
	C451.800537,172.010086 452.083649,169.214005 451.185638,168.264359 
	C450.117065,167.134338 447.346375,166.705017 445.735352,167.240967 
	C443.965454,167.829803 442.104095,169.591080 441.283569,171.317291 
	C438.716309,176.718262 436.631897,182.348068 434.339569,187.880569 
	C431.950439,193.646851 429.537048,199.403091 426.755310,206.072327 
	C425.544373,203.196976 424.772003,201.388367 424.019287,199.571594 
	C420.071655,190.043289 416.195404,180.484573 412.151154,170.997467 
	C410.578583,167.308411 406.182953,165.611099 403.095001,167.394379 
	C399.658020,169.379257 401.635162,171.995789 402.644440,174.341599 
	C407.049103,184.579163 411.136383,194.978256 416.082153,204.950089 
	C419.972321,212.793686 422.460999,220.157806 416.561310,227.981964 
	C416.274170,228.362808 416.154633,228.891693 416.031128,229.370743 
	C415.273651,232.308228 416.465271,233.792130 419.450775,234.057388 
	C422.981262,234.371033 425.621063,233.362534 426.946838,229.756195 
	C427.921234,227.105606 429.151184,224.548950 430.605621,221.268158 
M594.253235,178.599365 
	C596.877991,177.704819 599.443481,176.431931 602.142151,176.008743 
	C605.744873,175.443832 607.067932,173.448715 606.795349,170.192749 
	C606.498291,166.645309 603.768799,165.623154 601.025146,166.469879 
	C597.203308,167.649323 593.641663,169.671906 589.932129,171.350189 
	C589.564575,168.214462 587.334106,166.274124 583.238647,167.001129 
	C578.797363,167.789520 579.330811,171.311005 579.321838,174.434311 
	C579.287415,186.421738 579.313354,198.409317 579.292786,210.396790 
	C579.286560,214.047302 579.209473,217.728622 584.355347,217.783981 
	C589.817078,217.842728 589.701721,213.970490 589.682190,210.144318 
	C589.650757,203.984222 589.175659,197.770096 589.837341,191.681992 
	C590.301514,187.412125 592.345520,183.313995 594.253235,178.599365 
M502.255371,81.818459 
	C506.223541,81.380836 507.255768,78.716843 506.564819,75.398445 
	C505.846008,71.946251 502.778259,71.538918 500.209412,72.439644 
	C496.618469,73.698761 493.311981,75.769066 489.682556,77.593475 
	C489.581055,73.662720 486.898407,72.284058 482.991638,72.968430 
	C478.884583,73.687889 479.243744,77.015396 479.240173,80.019836 
	C479.225555,92.335182 479.260681,104.650703 479.206055,116.965836 
	C479.189636,120.671799 479.781891,123.752090 484.449097,123.692192 
	C489.134247,123.632072 489.546387,120.440521 489.556000,116.803497 
	C489.576172,109.152084 489.374481,101.476479 489.913269,93.856720 
	C490.448944,86.281624 494.082153,82.919586 502.255371,81.818459 
z"/>
<path fill="#DB187F" opacity="1.000000" stroke="none" 
	d="
M155.484985,175.834930 
	C149.124756,190.803635 151.098648,204.363022 161.589584,216.165588 
	C171.425659,227.231400 184.052917,230.575394 198.348877,226.962296 
	C201.508087,226.163849 204.493134,224.455276 207.377930,222.842911 
	C211.886383,220.323120 215.272430,220.423233 216.880234,223.788254 
	C218.883240,227.980438 216.181259,230.352127 212.970703,232.232147 
	C198.730469,240.570877 184.104660,241.273270 168.928467,234.756958 
	C166.476929,233.704315 163.081528,233.284195 160.607330,234.079773 
	C103.434753,252.463425 40.716743,219.694733 23.225107,162.120911 
	C5.496758,103.767921 38.912418,42.097397 97.663811,26.094843 
	C138.663574,14.927430 175.292160,24.047913 204.879929,54.804913 
	C234.569855,85.668114 243.085739,122.475601 230.643845,163.760422 
	C228.581985,170.602127 220.363602,171.729935 214.603699,166.020309 
	C201.826767,153.354996 183.384216,150.918671 169.031815,161.014236 
	C163.780121,164.708328 160.078964,170.606720 155.484985,175.834930 
M124.808777,227.825424 
	C134.448730,227.920166 143.961090,227.129242 153.787064,224.081421 
	C145.566162,213.445511 140.428177,202.246124 140.895340,189.170746 
	C141.364319,176.045013 146.683762,165.021454 156.247269,156.095566 
	C173.498657,139.994385 195.989471,139.835907 220.951523,155.680756 
	C221.356049,154.564926 221.836655,153.528870 222.109940,152.440735 
	C225.020996,140.849808 225.762039,129.194916 224.056152,117.283707 
	C216.658783,65.632431 168.605728,26.519037 116.036407,33.662189 
	C79.083405,38.683384 52.287041,58.128159 37.762184,91.966690 
	C23.059410,126.219696 27.472492,159.695694 50.016552,189.677277 
	C68.315056,214.012650 93.619247,226.029419 124.808777,227.825424 
z"/>
<path fill="#5E6164" opacity="1.000000" stroke="none" 
	d="
M615.380005,95.209862 
	C615.313232,103.009483 615.181335,110.337456 615.272278,117.662666 
	C615.316101,121.195198 614.298401,123.605316 610.386230,123.695564 
	C606.218811,123.791695 605.112610,121.326195 605.068420,117.555954 
	C604.959473,108.246056 605.074097,98.893265 604.182312,89.646103 
	C603.519714,82.774841 598.998779,80.051407 592.129700,80.890945 
	C587.714355,81.430588 584.471130,83.807121 583.481262,88.063698 
	C582.475159,92.390137 582.079102,96.906166 581.877197,101.360085 
	C581.613525,107.177254 581.796509,113.014984 581.800598,118.843857 
	C581.803040,122.217247 579.891663,123.681198 576.766663,123.687904 
	C573.664490,123.694557 571.698364,122.326874 571.701477,118.902130 
	C571.714233,105.079430 571.569824,91.253654 571.886597,77.438255 
	C571.921936,75.898102 574.496216,73.240028 575.949463,73.201088 
	C577.839294,73.150459 579.882690,75.075485 581.648315,76.426735 
	C582.178223,76.832253 582.001709,78.160866 582.184265,79.285042 
	C593.205566,67.896881 607.795044,70.199066 612.478333,82.575737 
	C617.124207,75.339180 623.441772,71.572075 631.950745,71.886093 
	C640.695740,72.208824 646.739563,76.168846 647.740417,84.843872 
	C649.069336,96.362610 648.977051,108.065681 648.977600,119.689575 
	C648.977661,121.025276 645.820557,123.116592 643.854309,123.517105 
	C641.016968,124.095055 639.187073,122.045334 639.147705,119.043427 
	C639.060425,112.383102 639.144775,105.720520 639.058716,99.060165 
	C639.024475,96.405838 638.942810,93.718330 638.504639,91.109421 
	C637.252563,83.654259 634.030457,80.720390 627.463867,80.721771 
	C620.698120,80.723198 617.121521,83.965240 615.860779,91.270088 
	C615.662659,92.417686 615.555664,93.581024 615.380005,95.209862 
z"/>
<path fill="#5D6063" opacity="1.000000" stroke="none" 
	d="
M331.684265,60.244465 
	C346.241608,65.669487 351.356567,76.877281 351.544739,90.972557 
	C351.749237,106.290962 346.383179,118.309731 330.250977,123.674026 
	C332.289429,127.251175 334.205505,130.613510 336.126648,133.984802 
	C329.202667,137.421448 324.815613,136.141891 322.100464,129.747772 
	C320.579498,126.165955 318.510864,124.613487 314.558868,123.821175 
	C310.142303,122.935715 305.570892,121.023094 301.937622,118.366547 
	C290.922577,110.312584 287.477905,90.004402 294.062653,75.182259 
	C299.488953,62.967697 312.737823,56.618538 327.419983,59.219639 
	C328.727753,59.451324 330.010132,59.826164 331.684265,60.244465 
M301.580505,86.296082 
	C301.672882,90.428047 301.291534,94.637291 301.950378,98.676872 
	C303.634766,109.004181 310.399475,114.840591 320.226288,115.070656 
	C330.962433,115.321999 338.030090,110.001167 340.159546,99.442421 
	C340.968536,95.431007 341.191193,91.147919 340.792633,87.075615 
	C339.665894,75.563431 332.366119,68.450378 321.985840,68.129402 
	C311.272369,67.798126 304.130798,73.908646 301.580505,86.296082 
z"/>
<path fill="#5E6164" opacity="1.000000" stroke="none" 
	d="
M472.328796,172.699310 
	C484.823517,160.794083 503.976410,165.337280 509.486664,181.239700 
	C512.080872,188.726395 511.880371,196.298645 509.418152,203.816498 
	C504.363800,219.248978 482.793182,225.222260 470.092834,209.758606 
	C470.162598,213.854172 470.165527,217.616287 465.313263,217.679199 
	C462.225342,217.719238 460.043884,216.576385 460.038483,213.129105 
	C460.008209,193.798721 460.017151,174.468277 460.022736,155.137848 
	C460.023743,151.698807 462.075806,150.458786 465.192535,150.492889 
	C468.446808,150.528488 470.072540,152.168564 470.053680,155.473434 
	C470.022308,160.972366 470.014130,166.472549 470.142120,171.968811 
	C470.150421,172.325562 471.402679,172.653351 472.328796,172.699310 
M495.384399,177.996292 
	C485.871948,171.731308 475.057281,174.379074 471.306366,184.054337 
	C469.124481,189.682388 469.173981,195.469986 471.461945,201.093079 
	C473.855896,206.976730 479.023590,210.189102 485.632233,210.153931 
	C492.209595,210.118927 497.545105,206.857895 499.605743,200.852264 
	C502.346466,192.864487 502.083588,185.140564 495.384399,177.996292 
z"/>
<path fill="#5D6063" opacity="1.000000" stroke="none" 
	d="
M376.077637,153.909210 
	C383.882446,156.177490 389.463684,160.645996 392.961670,167.536804 
	C394.290863,170.155243 396.177826,173.272720 392.136597,175.204681 
	C388.813354,176.793427 385.719879,176.591583 383.747559,172.668396 
	C381.321960,167.843658 377.554810,164.429855 372.231964,163.037811 
	C362.197327,160.413513 352.926941,165.225357 349.388275,175.003021 
	C346.929993,181.795517 346.905151,188.756912 349.039795,195.619003 
	C351.439392,203.332886 356.658356,208.053680 364.825562,208.893997 
	C372.860443,209.720688 379.145966,206.717865 383.261017,199.593918 
	C383.759735,198.730545 384.085083,197.326859 384.787689,197.102188 
	C387.092438,196.365265 389.732391,195.316544 391.843109,195.882065 
	C392.970978,196.184265 394.376190,200.059952 393.740906,201.443268 
	C392.044647,205.136826 389.855011,208.943985 386.901489,211.663437 
	C370.688049,226.591965 342.906311,217.886124 338.080841,196.422791 
	C337.107513,192.093521 336.774933,187.489075 336.976166,183.049072 
	C337.960327,161.333542 354.480255,148.964630 376.077637,153.909210 
z"/>
<path fill="#5E6264" opacity="1.000000" stroke="none" 
	d="
M567.915649,181.129013 
	C571.629639,193.764557 570.729065,194.986694 558.112488,194.983505 
	C548.803589,194.981155 539.494629,194.983047 530.231750,194.983047 
	C529.362854,201.306183 532.474670,206.829025 538.299744,208.851334 
	C545.139526,211.225906 551.738342,210.832809 557.576660,205.958984 
	C558.215088,205.426025 558.846985,204.475220 559.507202,204.452530 
	C561.812683,204.373398 564.129272,204.616501 566.441650,204.737152 
	C566.083984,206.627884 566.316345,208.965378 565.276001,210.339233 
	C556.326599,222.157837 533.271301,221.612366 524.383911,209.120407 
	C517.519897,199.472519 517.183044,188.752121 522.686279,178.407242 
	C527.868896,168.665039 536.885498,165.305771 547.531616,166.112701 
	C557.201782,166.845642 564.026550,171.746262 567.915649,181.129013 
M541.264282,174.337280 
	C533.357300,176.720078 530.028748,180.563232 530.503357,186.705750 
	C540.242126,186.705750 549.973267,186.705750 559.733887,186.705750 
	C558.687073,177.461151 553.092285,173.592972 541.264282,174.337280 
z"/>
<path fill="#5E6264" opacity="1.000000" stroke="none" 
	d="
M460.982025,119.001968 
	C449.905396,126.851509 435.564667,126.644424 426.455170,118.727028 
	C417.960175,111.343735 415.377441,96.086151 420.946716,85.070480 
	C425.459442,76.144615 433.212738,72.209473 442.884735,71.934822 
	C452.910461,71.650116 461.228760,75.129433 466.298248,84.261284 
	C472.428589,95.303970 470.229919,109.700119 460.982025,119.001968 
M444.422180,116.095940 
	C452.367767,115.202560 456.861816,111.557816 458.746490,104.478798 
	C460.961243,96.159843 458.530487,87.206215 452.808685,83.238876 
	C451.345123,82.224060 449.609497,81.427650 447.882599,80.995354 
	C438.129700,78.553879 430.374664,83.979301 428.562469,94.375198 
	C426.455536,106.462021 432.375031,115.027885 444.422180,116.095940 
z"/>
<path fill="#5E6264" opacity="1.000000" stroke="none" 
	d="
M558.345581,73.977997 
	C559.016418,76.134460 559.692322,78.042511 559.708374,79.956085 
	C559.807495,91.769829 559.796143,103.585007 559.733521,115.399239 
	C559.715881,118.732376 560.850220,122.839035 555.687317,123.634781 
	C550.699280,124.403557 549.586670,120.950348 549.135620,116.384804 
	C543.598328,123.504936 536.744995,125.385925 528.768188,124.223656 
	C521.022156,123.095016 515.089172,118.921043 514.197144,111.279472 
	C512.854919,99.781387 512.946167,88.096375 512.943726,76.490715 
	C512.943481,75.285271 516.312195,73.373199 518.325256,73.038925 
	C521.334900,72.539146 522.726624,74.836121 522.742004,77.753220 
	C522.777161,84.409088 522.739380,91.065361 522.781494,97.721153 
	C522.795166,99.880157 522.791199,102.063011 523.094971,104.192192 
	C524.209961,112.006973 528.486206,115.728386 536.172668,115.753563 
	C543.414185,115.777283 548.220764,112.093201 548.956177,104.474236 
	C549.752441,96.224663 549.458923,87.868645 549.610352,79.558510 
	C549.727905,73.103416 551.535583,71.839310 558.345581,73.977997 
z"/>
<path fill="#5E6163" opacity="1.000000" stroke="none" 
	d="
M361.698853,109.186081 
	C361.359283,98.310310 361.043152,87.842445 360.895752,77.372200 
	C360.848206,73.992996 363.019958,72.832329 366.191864,72.898529 
	C369.578247,72.969185 370.978851,74.751114 370.984497,77.935295 
	C370.998322,85.759270 370.820435,93.588776 371.056702,101.405869 
	C371.370209,111.779579 377.096527,116.871941 386.585968,115.610115 
	C392.767212,114.788177 396.626923,111.347946 397.240997,104.309525 
	C397.990967,95.713562 397.827820,87.031013 397.885284,78.384750 
	C397.910065,74.651802 399.348969,72.769653 403.214569,72.906860 
	C406.210388,73.013184 407.939331,74.315842 407.942627,77.436363 
	C407.957123,91.253235 407.954346,105.070122 407.956055,118.887009 
	C407.956421,121.933075 406.354126,123.549858 403.387390,123.667717 
	C400.393860,123.786629 398.117676,122.808899 397.938568,119.302612 
	C397.900665,118.560516 397.793365,117.821960 397.684875,116.756172 
	C384.357758,131.141220 363.317352,123.903313 361.698853,109.186081 
z"/>
<path fill="#5E6163" opacity="1.000000" stroke="none" 
	d="
M430.436432,221.609299 
	C429.151184,224.548950 427.921234,227.105606 426.946838,229.756195 
	C425.621063,233.362534 422.981262,234.371033 419.450775,234.057388 
	C416.465271,233.792130 415.273651,232.308228 416.031128,229.370743 
	C416.154633,228.891693 416.274170,228.362808 416.561310,227.981964 
	C422.460999,220.157806 419.972321,212.793686 416.082153,204.950089 
	C411.136383,194.978256 407.049103,184.579163 402.644440,174.341599 
	C401.635162,171.995789 399.658020,169.379257 403.095001,167.394379 
	C406.182953,165.611099 410.578583,167.308411 412.151154,170.997467 
	C416.195404,180.484573 420.071655,190.043289 424.019287,199.571594 
	C424.772003,201.388367 425.544373,203.196976 426.755310,206.072327 
	C429.537048,199.403091 431.950439,193.646851 434.339569,187.880569 
	C436.631897,182.348068 438.716309,176.718262 441.283569,171.317291 
	C442.104095,169.591080 443.965454,167.829803 445.735352,167.240967 
	C447.346375,166.705017 450.117065,167.134338 451.185638,168.264359 
	C452.083649,169.214005 451.800537,172.010086 451.127502,173.603058 
	C444.395172,189.537170 437.473755,205.391418 430.436432,221.609299 
z"/>
<path fill="#636669" opacity="1.000000" stroke="none" 
	d="
M593.968628,178.869263 
	C592.345520,183.313995 590.301514,187.412125 589.837341,191.681992 
	C589.175659,197.770096 589.650757,203.984222 589.682190,210.144318 
	C589.701721,213.970490 589.817078,217.842728 584.355347,217.783981 
	C579.209473,217.728622 579.286560,214.047302 579.292786,210.396790 
	C579.313354,198.409317 579.287415,186.421738 579.321838,174.434311 
	C579.330811,171.311005 578.797363,167.789520 583.238647,167.001129 
	C587.334106,166.274124 589.564575,168.214462 589.932129,171.350189 
	C593.641663,169.671906 597.203308,167.649323 601.025146,166.469879 
	C603.768799,165.623154 606.498291,166.645309 606.795349,170.192749 
	C607.067932,173.448715 605.744873,175.443832 602.142151,176.008743 
	C599.443481,176.431931 596.877991,177.704819 593.968628,178.869263 
z"/>
<path fill="#606366" opacity="1.000000" stroke="none" 
	d="
M501.855255,81.832573 
	C494.082153,82.919586 490.448944,86.281624 489.913269,93.856720 
	C489.374481,101.476479 489.576172,109.152084 489.556000,116.803497 
	C489.546387,120.440521 489.134247,123.632072 484.449097,123.692192 
	C479.781891,123.752090 479.189636,120.671799 479.206055,116.965836 
	C479.260681,104.650703 479.225555,92.335182 479.240173,80.019836 
	C479.243744,77.015396 478.884583,73.687889 482.991638,72.968430 
	C486.898407,72.284058 489.581055,73.662720 489.682556,77.593475 
	C493.311981,75.769066 496.618469,73.698761 500.209412,72.439644 
	C502.778259,71.538918 505.846008,71.946251 506.564819,75.398445 
	C507.255768,78.716843 506.223541,81.380836 501.855255,81.832573 
z"/>
<path fill="#FFFDFE" opacity="1.000000" stroke="none" 
	d="
M124.353241,227.797943 
	C93.619247,226.029419 68.315056,214.012650 50.016552,189.677277 
	C27.472492,159.695694 23.059410,126.219696 37.762184,91.966690 
	C52.287041,58.128159 79.083405,38.683384 116.036407,33.662189 
	C168.605728,26.519037 216.658783,65.632431 224.056152,117.283707 
	C225.762039,129.194916 225.020996,140.849808 222.109940,152.440735 
	C221.836655,153.528870 221.356049,154.564926 220.951523,155.680756 
	C195.989471,139.835907 173.498657,139.994385 156.247269,156.095566 
	C146.683762,165.021454 141.364319,176.045013 140.895340,189.170746 
	C140.428177,202.246124 145.566162,213.445511 153.787064,224.081421 
	C143.961090,227.129242 134.448730,227.920166 124.353241,227.797943 
z"/>
<path fill="#FCFCFC" opacity="1.000000" stroke="none" 
	d="
M301.655884,85.877899 
	C304.130798,73.908646 311.272369,67.798126 321.985840,68.129402 
	C332.366119,68.450378 339.665894,75.563431 340.792633,87.075615 
	C341.191193,91.147919 340.968536,95.431007 340.159546,99.442421 
	C338.030090,110.001167 330.962433,115.321999 320.226288,115.070656 
	C310.399475,114.840591 303.634766,109.004181 301.950378,98.676872 
	C301.291534,94.637291 301.672882,90.428047 301.655884,85.877899 
z"/>
<path fill="#FCFCFC" opacity="1.000000" stroke="none" 
	d="
M495.666077,178.245651 
	C502.083588,185.140564 502.346466,192.864487 499.605743,200.852264 
	C497.545105,206.857895 492.209595,210.118927 485.632233,210.153931 
	C479.023590,210.189102 473.855896,206.976730 471.461945,201.093079 
	C469.173981,195.469986 469.124481,189.682388 471.306366,184.054337 
	C475.057281,174.379074 485.871948,171.731308 495.666077,178.245651 
z"/>
<path fill="#F9FAFA" opacity="1.000000" stroke="none" 
	d="
M541.673584,174.265717 
	C553.092285,173.592972 558.687073,177.461151 559.733887,186.705750 
	C549.973267,186.705750 540.242126,186.705750 530.503357,186.705750 
	C530.028748,180.563232 533.357300,176.720078 541.673584,174.265717 
z"/>
<path fill="#FBFCFC" opacity="1.000000" stroke="none" 
	d="
M443.997803,116.096397 
	C432.375031,115.027885 426.455536,106.462021 428.562469,94.375198 
	C430.374664,83.979301 438.129700,78.553879 447.882599,80.995354 
	C449.609497,81.427650 451.345123,82.224060 452.808685,83.238876 
	C458.530487,87.206215 460.961243,96.159843 458.746490,104.478798 
	C456.861816,111.557816 452.367767,115.202560 443.997803,116.096397 
z"/>
</svg>